<?xml version="1.0" encoding="utf-8"?>
<!-- Generator: Adobe Illustrator 21.1.0, SVG Export Plug-In . SVG Version: 6.00 Build 0)  -->
<svg version="1.1" id="Layer_1" xmlns="http://www.w3.org/2000/svg" xmlns:xlink="http://www.w3.org/1999/xlink" x="0px" y="0px"
	 width="49.0605469px" height="44.9814453px" viewBox="0 0 49.0605469 44.9814453"
	 style="enable-background:new 0 0 49.0605469 44.9814453;" xml:space="preserve">
<style type="text/css">
	.st0{fill:#0D0D0D;}
	.st1{fill:none;stroke:#0D0D0D;stroke-width:2.5;stroke-linecap:round;stroke-linejoin:round;stroke-miterlimit:10;}
	.st2{fill:#AEDDD6;}
</style>
<path class="st0" d="M47.8105469,44.9814453H1.25c-0.6904297,0-1.25-0.5595703-1.25-1.25s0.5595703-1.25,1.25-1.25h46.5605469
	c0.6904297,0,1.25,0.5595703,1.25,1.25S48.5009766,44.9814453,47.8105469,44.9814453z"/>
<path class="st1" d="M24.5302734,36.9008904"/>
<path class="st0" d="M29.7119141,44.9814453H7.815918c-0.6904297,0-1.25-0.5595703-1.25-1.25V1.25
	c0-0.6904297,0.5595703-1.25,1.25-1.25h21.8959961c0.6904297,0,1.25,0.5595703,1.25,1.25v42.4814453
	C30.9619141,44.421875,30.4023438,44.9814453,29.7119141,44.9814453z M9.065918,42.4814453h19.3959961V2.5H9.065918V42.4814453z"/>
<g>
	<rect x="29.712019" y="14.6593695" class="st2" width="11.5327454" height="29.0715885"/>
	<path class="st0" d="M41.2451172,44.9814453H29.7119141c-0.6904297,0-1.25-0.5595703-1.25-1.25V14.6591797
		c0-0.6904297,0.5595703-1.25,1.25-1.25h11.5332031c0.6904297,0,1.25,0.5595703,1.25,1.25v29.0722656
		C42.4951172,44.421875,41.9355469,44.9814453,41.2451172,44.9814453z M30.9619141,42.4814453h9.0332031V15.9091797h-9.0332031
		V42.4814453z"/>
</g>
<path class="st0" d="M14.7578125,12.0151367c-0.6904297,0-1.25-0.5595703-1.25-1.25V8.1674805c0-0.6904297,0.5595703-1.25,1.25-1.25
	s1.25,0.5595703,1.25,1.25v2.5976562C16.0078125,11.4555664,15.4482422,12.0151367,14.7578125,12.0151367z"/>
<path class="st0" d="M22.5454102,12.0151367c-0.6904297,0-1.25-0.5595703-1.25-1.25V8.1674805c0-0.6904297,0.5595703-1.25,1.25-1.25
	s1.25,0.5595703,1.25,1.25v2.5976562C23.7954102,11.4555664,23.2358398,12.0151367,22.5454102,12.0151367z"/>
<path class="st0" d="M14.7578125,20.1933594c-0.6904297,0-1.25-0.5595703-1.25-1.25v-2.5976562
	c0-0.6904297,0.5595703-1.25,1.25-1.25s1.25,0.5595703,1.25,1.25v2.5976562
	C16.0078125,19.6337891,15.4482422,20.1933594,14.7578125,20.1933594z"/>
<path class="st0" d="M22.5454102,20.1933594c-0.6904297,0-1.25-0.5595703-1.25-1.25v-2.5976562
	c0-0.6904297,0.5595703-1.25,1.25-1.25s1.25,0.5595703,1.25,1.25v2.5976562
	C23.7954102,19.6337891,23.2358398,20.1933594,22.5454102,20.1933594z"/>
<path class="st0" d="M14.7578125,28.3720703c-0.6904297,0-1.25-0.5595703-1.25-1.25v-2.5986328
	c0-0.6904297,0.5595703-1.25,1.25-1.25s1.25,0.5595703,1.25,1.25v2.5986328
	C16.0078125,27.8125,15.4482422,28.3720703,14.7578125,28.3720703z"/>
<path class="st0" d="M35.6445312,28.3720703c-0.6904297,0-1.25-0.5595703-1.25-1.25v-2.5986328
	c0-0.6904297,0.5595703-1.25,1.25-1.25s1.25,0.5595703,1.25,1.25v2.5986328
	C36.8945312,27.8125,36.3349609,28.3720703,35.6445312,28.3720703z"/>
<path class="st0" d="M35.6445312,36.4199219c-0.6904297,0-1.25-0.5595703-1.25-1.25v-2.5976562
	c0-0.6904297,0.5595703-1.25,1.25-1.25s1.25,0.5595703,1.25,1.25v2.5976562
	C36.8945312,35.8603516,36.3349609,36.4199219,35.6445312,36.4199219z"/>
<path class="st0" d="M22.5454102,28.3720703c-0.6904297,0-1.25-0.5595703-1.25-1.25v-2.5986328
	c0-0.6904297,0.5595703-1.25,1.25-1.25s1.25,0.5595703,1.25,1.25v2.5986328
	C23.7954102,27.8125,23.2358398,28.3720703,22.5454102,28.3720703z"/>
<path class="st1" d="M35.6445732,28.7226181"/>
<path class="st1" d="M35.6445732,24.3938236"/>
<path class="st1" d="M35.6445732,32.5720978"/>
<g>
	<rect x="15.5854149" y="33.5396233" class="st2" width="6.3569717" height="10.1913357"/>
	<path class="st0" d="M21.9423828,44.9814453h-6.3569336c-0.6904297,0-1.25-0.5595703-1.25-1.25V33.5400391
		c0-0.6904297,0.5595703-1.25,1.25-1.25h6.3569336c0.6904297,0,1.25,0.5595703,1.25,1.25v10.1914062
		C23.1923828,44.421875,22.6328125,44.9814453,21.9423828,44.9814453z M16.8354492,42.4814453h3.8569336v-7.6914062h-3.8569336
		V42.4814453z"/>
</g>
</svg>
