<?xml version="1.0" encoding="utf-8"?>
<!-- Generator: Adobe Illustrator 21.0.0, SVG Export Plug-In . SVG Version: 6.00 Build 0)  -->
<!DOCTYPE svg PUBLIC "-//W3C//DTD SVG 1.1//EN" "http://www.w3.org/Graphics/SVG/1.1/DTD/svg11.dtd">
<svg version="1.1" id="Layer_1" xmlns="http://www.w3.org/2000/svg" xmlns:xlink="http://www.w3.org/1999/xlink" x="0px" y="0px"
     width="109.2265625px" height="85.6938477px" viewBox="0 0 109.2265625 85.6938477"
     style="enable-background:new 0 0 109.2265625 85.6938477;" xml:space="preserve">
<style type="text/css">
    .st0{fill:#0D0D0D;}
    .st1{fill:#AEDDD6;}
</style>
<g>
    <g>
        <path class="st0" d="M84.3837891,68.3901367c-0.6904297,0-1.25-0.5595703-1.25-1.25v-8.5c0-0.6904297,0.5595703-1.25,1.25-1.25
            s1.25,0.5595703,1.25,1.25v8.5C85.6337891,67.8305664,85.0742188,68.3901367,84.3837891,68.3901367z"/>
        <path class="st0" d="M84.3837891,85.6938477h-8.5c-0.6904297,0-1.25-0.5595703-1.25-1.25s0.5595703-1.25,1.25-1.25h7.25v-7.25
            c0-0.6904297,0.5595703-1.25,1.25-1.25s1.25,0.5595703,1.25,1.25v8.5
            C85.6337891,85.1342773,85.0742188,85.6938477,84.3837891,85.6938477z"/>
        <path class="st0" d="M62.6572266,85.6938477H49.4301758c-0.6904297,0-1.25-0.5595703-1.25-1.25s0.5595703-1.25,1.25-1.25
            h13.2270508c0.6904297,0,1.25,0.5595703,1.25,1.25S63.3476562,85.6938477,62.6572266,85.6938477z M36.2036133,85.6938477
            H22.9765625c-0.6904297,0-1.25-0.5595703-1.25-1.25s0.5595703-1.25,1.25-1.25h13.2270508c0.6904297,0,1.25,0.5595703,1.25,1.25
            S36.894043,85.6938477,36.2036133,85.6938477z"/>
        <path class="st0" d="M9.75,85.6938477h-8.5c-0.6904297,0-1.25-0.5595703-1.25-1.25v-8.5c0-0.6904297,0.5595703-1.25,1.25-1.25
            s1.25,0.5595703,1.25,1.25v7.25h7.25c0.6904297,0,1.25,0.5595703,1.25,1.25S10.4404297,85.6938477,9.75,85.6938477z"/>
        <path class="st0" d="M1.25,63.2641602c-0.6904297,0-1.25-0.5595703-1.25-1.25V48.0834961c0-0.6904297,0.5595703-1.25,1.25-1.25
            s1.25,0.5595703,1.25,1.25v13.9306641C2.5,62.7045898,1.9404297,63.2641602,1.25,63.2641602z"/>
        <path class="st0" d="M1.25,35.4033203c-0.6904297,0-1.25-0.5595703-1.25-1.25v-8.5c0-0.6904297,0.5595703-1.25,1.25-1.25h8.5
            c0.6904297,0,1.25,0.5595703,1.25,1.25s-0.5595703,1.25-1.25,1.25H2.5v7.25C2.5,34.84375,1.9404297,35.4033203,1.25,35.4033203z"
            />
        <path class="st0" d="M31.3530273,26.9033203h-8.5c-0.6904297,0-1.25-0.5595703-1.25-1.25s0.5595703-1.25,1.25-1.25h8.5
            c0.6904297,0,1.25,0.5595703,1.25,1.25S32.043457,26.9033203,31.3530273,26.9033203z"/>
    </g>
    <path class="st0" d="M107.9765625,57.6899414H31.4291992c-0.6904297,0-1.25-0.5595703-1.25-1.25V1.25
        c0-0.6904297,0.5595703-1.25,1.25-1.25h76.5473633c0.6904297,0,1.25,0.5595703,1.25,1.25v55.1899414
        C109.2265625,57.1303711,108.6669922,57.6899414,107.9765625,57.6899414z M32.6791992,55.1899414h74.0473633V2.5H32.6791992
        V55.1899414z"/>
    <g>
        <path class="st1" d="M46.6707802,15.0141249C34.0144844,18.7207165,25.738945,30.1767292,25.4952297,42.6991615h-9.9501972
            l17.9567947,26.9547691l17.601696-26.9547691H40.0433884c0.1829453-10.4818764,7.1030579-20.0787506,17.6942978-23.180727
            c5.1901627-1.5200806,10.4775238-1.2462215,15.2063675,0.450037C65.7375107,14.4153128,56.070118,12.261281,46.6707802,15.0141249
            z"/>
        <path class="st0" d="M33.5019531,70.9038086c-0.4179688,0-0.8085938-0.2089844-1.0405273-0.5566406L14.5043945,43.3920898
            c-0.2553711-0.3837891-0.2788086-0.8764648-0.0615234-1.2827148c0.2177734-0.4067383,0.6411133-0.6601562,1.1020508-0.6601562
            h8.7480469c0.7587891-12.9458008,9.4794922-23.9599609,22.0263672-27.6347656l0,0
            c9.3867188-2.7490234,19.6240234-0.8183594,27.3876953,5.1635742c0.4873047,0.3754883,0.6289062,1.050293,0.3339844,1.5898438
            c-0.2958984,0.5400391-0.9414062,0.7836914-1.5185547,0.5771484c-4.6738281-1.6772461-9.6650391-1.8242188-14.4335938-0.4267578
            c-9.4570312,2.7700195-16.050293,11.0078125-16.7397461,20.730957h9.7543945c0.4589844,0,0.8808594,0.2514648,1.0991211,0.6547852
            c0.21875,0.4038086,0.1982422,0.8945312-0.0527344,1.2783203L34.5483398,70.3374023
            c-0.2294922,0.3515625-0.6206055,0.5644531-1.0405273,0.5664062
            C33.5058594,70.9038086,33.5039062,70.9038086,33.5019531,70.9038086z M17.8798828,43.949707l15.6118164,23.4335938
            L48.7944336,43.949707H40.043457c-0.3354492,0-0.6567383-0.1347656-0.8916016-0.3740234s-0.3642578-0.5634766-0.3583984-0.8984375
            c0.1987305-11.3701172,7.6704102-21.1591797,18.5922852-24.3583984c2.7949219-0.8178711,5.6611328-1.1572266,8.4990234-1.0209961
            c-5.9189453-2.4829102-12.5976562-2.9174805-18.8623047-1.0839844l0,0
            c-11.8881836,3.4814453-20.0366211,14.1347656-20.2773438,26.5097656c-0.0136719,0.6801758-0.5693359,1.2260742-1.25,1.2260742
            H17.8798828z M46.6708984,15.0141602h0.0097656H46.6708984z"/>
    </g>
</g>
</svg>