<?xml version="1.0" encoding="utf-8"?>
<!-- Generator: Adobe Illustrator 19.1.0, SVG Export Plug-In . SVG Version: 6.00 Build 0)  -->
<!DOCTYPE svg PUBLIC "-//W3C//DTD SVG 1.1//EN" "http://www.w3.org/Graphics/SVG/1.1/DTD/svg11.dtd">
<svg version="1.1" id="Layer_1" xmlns="http://www.w3.org/2000/svg" xmlns:xlink="http://www.w3.org/1999/xlink" x="0px" y="0px"
	 width="17.8999996px" height="17.9000034px" viewBox="-296 388.1000061 17.8999996 17.9000034"
	 style="enable-background:new -296 388.1000061 17.8999996 17.9000034;" xml:space="preserve">
<style type="text/css">
	.st0{fill:#FFFFFF;enable-background:new    ;}
</style>
<path class="st0" d="M-278.25,404.6499939l-7.6000061-7.5999756l7.6000061-7.6000061c0.2000122-0.2000122,0.2000122-0.5,0-0.7000122
	l-0.5-0.5c-0.2000122-0.1999817-0.5-0.1999817-0.7000122,0l-7.5999756,7.6000061l-7.5-7.6000061
	c-0.2000122-0.1999817-0.5-0.1999817-0.7000122,0l-0.6000061,0.6000061c-0.1999817,0.2000122-0.1999817,0.5,0,0.7000122
	l7.6000061,7.5999756l-7.6000061,7.5c-0.1999817,0.2000122-0.1999817,0.5,0,0.7000122l0.5,0.5
	c0.2000122,0.2000122,0.5,0.2000122,0.7000122,0l7.6000061-7.6000061l7.5999756,7.6000061
	c0.2000122,0.2000122,0.5,0.2000122,0.7000122,0l0.5-0.5C-278.0499878,405.1499939-278.0499878,404.8500061-278.25,404.6499939z"/>
</svg>
