<?xml version="1.0" encoding="utf-8"?>
<!-- Generator: Adobe Illustrator 18.1.0, SVG Export Plug-In . SVG Version: 6.00 Build 0)  -->
<svg xmlns="http://www.w3.org/2000/svg" width="51.7" height="51.7" viewBox="0 0 51.7 51.7"><path fill="#6C6C6C" d="M41.4 40.1l-7.2-7.2c2.1-2.4 3.4-5.6 3.4-9 0-7.3-6.4-13.7-13.7-13.7-7.6 0-13.7 6.1-13.7 13.7s6.1 13.7 13.7 13.7c3.5 0 6.6-1.3 9.1-3.5l7.2 7.2c.2.2.5.2.7 0l.5-.5c.2-.2.2-.5 0-.7zm-17.5-4.3c-6.6 0-12-5.4-12-11.9 0-6.6 5.4-12 12-12 6.4 0 12 5.6 12 12-.1 6.6-5.4 11.9-12 11.9z"/></svg>
